<svg width="38" height="38" viewBox="0 0 38 38" fill="none" xmlns="http://www.w3.org/2000/svg">
<path d="M3.79999 7.5999H0V34.2C0 36.29 1.71 38 3.79999 38H30.4V34.2H3.79999V7.5999ZM34.1999 -0.00012207H11.4C9.30999 -0.00012207 7.59999 1.70988 7.59999 3.79989V26.6C7.59999 28.69 9.30999 30.4 11.4 30.4H34.1999C36.2899 30.4 37.9999 28.69 37.9999 26.6V3.79989C37.9999 1.70988 36.2899 -0.00012207 34.1999 -0.00012207ZM32.2999 17.0999H13.3V13.2999H32.2999V17.0999ZM24.7 24.7H13.3V20.8999H24.7V24.7ZM32.2999 9.49991H13.3V5.6999H32.2999V9.49991Z" fill="#4EA4DC"/>
</svg>
